
        <svg xmlns="http://www.w3.org/2000/svg" xmlns:xlink="http://www.w3.org/1999/xlink" version="1.1" width="3162.1621621621625" height="1105.7715199217766" viewBox="0 0 3162.1621621621625 1105.7715199217766">
			
			<g transform="scale(8.108108108108109) translate(10, 10)">
				<defs id="SvgjsDefs7727"/><g id="SvgjsG7728" featureKey="symbolFeature-0" transform="matrix(0.13825446314502576,0,0,0.13825446314502576,-8.199001135975088,-24.088139920537436)" fill="#000"><path xmlns="http://www.w3.org/2000/svg" d="M779.3,464.9l-63.8,175l-59.3,212.3c-36.3,120.9-96.7,164-207.8,163.8c-95.6-0.1-155-39.5-211.3-128.4l-171.6-290  c-12.6-25.2-5.3-49.8,15.7-61.2c21-11.3,46.7-8.2,64.8,17.2c5.7,8,33.5,44.8,64.2,86.3c0,0,0.1,0.1,0.1,0.1  c13,18.7,30.8,42.2,52.8,71.8l65.9,95.6l55,86.3c5.1,9.2,15.5,13.7,24,8.5c8.2-5,10.8-12.9,5.2-24.1l-36.2-76.1  c-2.1-4.3,3.5-8.1,6.7-4.5l86.8,112.7c7.4,8.3,22.5,13.2,31.4,5.3c8.9-7.9,7.6-21.5,0.5-30.9l-73.2-103.8c-2.7-3.5,2.3-7.8,5.4-4.7  l102.1,107.1c7.4,8.3,22.2,11.9,31.1,4c8.9-7.9,7.6-21.8-0.1-30.7L459,737.8c-2.6-3,1.2-7.3,4.5-5l92.2,70.3c11.3,7.9,25.4,9.2,33,0  c8.5-10.2,1.5-24.6-8-32.3l-132.9-112c-21.2-16.6-13.5-34.9,12.8-34.2c33.5,1,71.1,1.5,77.5,1.7c15.1,0.6,23.9-8.3,25.8-19.7  c1.9-11.4-5.4-21.5-18.8-24.2l-162-20.5c-19.9-1.9-43-4.3-66.5-5.7l9.2-261.8c0.4-25.3,16.5-48.1,43.9-47.3  c24.6,0.7,42.7,21.2,44.1,49.6l3.9,220.8c0.3,8.3,12.2,9.2,13.8,1l49.9-308.5c4.7-23.8,27.7-39.5,51.8-35  c24.2,4.5,39.9,28.7,35.7,51.3l-39.3,280.4c-1.2,9.1,12,11.7,14.4,2.9l66.8-229.2c6.3-23.5,27.9-38.2,52-33.7  c24.2,4.5,38.9,31,34.7,53.5l-67.2,263.1c-1.7,9.6,11.6,14,15.9,5.2l66.2-130c11.2-23.3,29.3-29,47.8-22  C779.1,423.8,787.9,444.9,779.3,464.9z"/></g><g id="SvgjsG7729" featureKey="nameFeature-0" transform="matrix(0.7339124719788239,0,0,0.7339124719788239,119.26608752802117,22.8976098369177)" fill="#000"><path d="M17.48 14.96 l-1.32 2.64 c-0.12 0.24 -0.28 0.4 -0.44 0.4 c-0.24 0 -2.72 -1.76 -5.6 -1.76 c-1.84 0 -3.76 0.72 -3.76 3.12 c0 3.04 4.68 3.6 8.2 6.2 c2.04 1.52 3.44 3.64 3.44 6.68 c0 5.08 -3.6 8.44 -8.64 8.44 c-4.08 0 -8.36 -1.76 -8.36 -2.4 c0 -0.12 0.12 -0.4 0.2 -0.64 l0.92 -2.64 c0.08 -0.24 0.28 -0.4 0.44 -0.4 c0.24 0 3.2 1.76 6.64 1.76 c2.24 0 3.6 -1.2 3.6 -3.68 c0 -3.56 -4.08 -3.92 -8.16 -6.4 c-2.12 -1.28 -3.48 -2.88 -3.48 -6.2 c0 -5.76 4.16 -8.16 8.8 -8.16 c3.8 0 7.72 1.76 7.72 2.44 c0 0.12 -0.04 0.28 -0.2 0.6 z M29.6 36.68 c2.8 0 3.28 -2.8 3.28 -6.56 c0 -3.72 -0.52 -6.56 -3.28 -6.56 s-3.28 2.84 -3.28 6.56 s0.48 6.56 3.28 6.56 z M38.28 30.119999999999997 c0 6.44 -3.28 10.56 -8.68 10.56 s-8.68 -4.12 -8.68 -10.56 s3.28 -10.56 8.68 -10.56 c5.36 0 8.68 4.12 8.68 10.56 z M50.68 35.96 l0.8 3.28 c0.04 0.2 0.08 0.2 0.08 0.32 c0 0.56 -2.12 1.12 -4.04 1.12 c-4.92 0 -4.92 -4.04 -4.92 -7.72 l0 -20.4 c0 -0.6 0.28 -0.6 0.76 -0.72 l3.36 -0.68 c0.12 0 0.48 -0.12 0.56 -0.12 c0.32 0 0.4 0.16 0.4 0.84 l0 21.8 c0 1.28 0 2.4 1.12 2.4 c0.8 0 1.32 -0.36 1.56 -0.36 c0.16 0 0.28 0.08 0.32 0.24 z M61.2 20.8 l0 18.64 c0 0.44 -0.08 0.56 -0.56 0.56 l-3.96 0 c-0.48 0 -0.56 -0.12 -0.56 -0.56 l0 -15.48 l-3.08 0 c-0.48 0 -0.56 -0.12 -0.56 -0.56 l0 -2.6 c0 -0.44 0.08 -0.56 0.56 -0.56 l7.6 0 c0.48 0 0.56 0.12 0.56 0.56 z M61.92 14.32 c0 1.84 -1.48 3.32 -3.28 3.32 c-1.84 0 -3.32 -1.48 -3.32 -3.32 s1.48 -3.28 3.32 -3.28 c1.8 0 3.28 1.44 3.28 3.28 z M77.52 35.28 l0 -10.92 c-0.36 -0.2 -1.04 -0.8 -2.72 -0.8 c-3 0 -3.6 2.24 -3.6 6.68 c0 4.52 0.76 6.44 3.36 6.44 c1.8 0 2.48 -0.88 2.96 -1.4 z M82.96 39.28 l-3.04 1.24 c-0.16 0.04 -0.36 0.16 -0.52 0.16 c-0.36 0 -0.96 -1.4 -1.16 -2.4 c-0.64 0.6 -2.4 2.4 -5.28 2.4 c-4.56 0 -6.84 -3.68 -6.84 -9.76 c0 -7.56 2.72 -11.36 7.68 -11.36 c2.16 0 3.08 0.76 3.72 1.2 l0 -8.2 c0 -0.6 0.28 -0.6 0.76 -0.72 l3.36 -0.68 c0.12 0 0.48 -0.12 0.56 -0.12 c0.32 0 0.4 0.16 0.4 0.84 l0 21.84 c0 3.88 0.72 4.4 0.72 5.2 c0 0.16 -0.16 0.28 -0.36 0.36 z M102.52000000000001 39.28 l-3.04 1.24 c-0.16 0.04 -0.36 0.16 -0.52 0.16 c-0.36 0 -0.96 -1.4 -1.16 -2.4 c-0.8 0.8 -2.2 2.4 -5.2 2.4 c-3.68 0 -6 -2.4 -6 -6.16 c0 -6.76 7.28 -6.76 10.44 -6.76 l0 -1.24 c0 -1.8 -0.32 -2.96 -2.84 -2.96 c-2.24 0 -4.44 1.2 -4.96 1.2 c-0.2 0 -0.36 -0.24 -0.4 -0.4 l-0.8 -2.44 c-0.08 -0.16 -0.12 -0.32 -0.12 -0.48 c0 -0.92 3.96 -1.88 7.04 -1.88 c5 0 6.88 2.28 6.88 6.44 l0 7.72 c0 3.88 1.04 4.4 1.04 5.2 c0 0.16 -0.16 0.28 -0.36 0.36 z M97.04 35.44 l0 -4.4 c-1 0 -5.64 -0.32 -5.64 3.2 c0 1.56 1.12 2.72 2.64 2.72 c1.48 0 2.52 -1.04 3 -1.52 z M112.32 26.08 l0 13.36 c0 0.44 -0.08 0.56 -0.56 0.56 l-3.96 0 c-0.48 0 -0.56 -0.12 -0.56 -0.56 l0 -12.08 c0 -4.4 -1.04 -5.12 -1.04 -6.04 c0 -0.16 0.16 -0.28 0.36 -0.36 l3.04 -1.24 c0.16 -0.04 0.36 -0.16 0.52 -0.16 c0.48 0 1.28 1.8 1.48 3.16 c0.76 -0.92 2.24 -3.16 4.96 -3.16 c1.16 0 2.32 0.4 2.32 0.92 c0 0.16 -0.04 0.32 -0.08 0.4 l-1.24 3.36 c-0.04 0.12 -0.16 0.36 -0.32 0.36 c-0.24 0 -0.96 -0.44 -1.88 -0.44 c-1.24 0 -2.52 1.36 -3.04 1.92 z M127.88 20.8 l0 18.64 c0 0.44 -0.08 0.56 -0.56 0.56 l-3.96 0 c-0.48 0 -0.56 -0.12 -0.56 -0.56 l0 -15.48 l-3.08 0 c-0.48 0 -0.56 -0.12 -0.56 -0.56 l0 -2.6 c0 -0.44 0.08 -0.56 0.56 -0.56 l7.6 0 c0.48 0 0.56 0.12 0.56 0.56 z M128.6 14.32 c0 1.84 -1.48 3.32 -3.28 3.32 c-1.84 0 -3.32 -1.48 -3.32 -3.32 s1.48 -3.28 3.32 -3.28 c1.8 0 3.28 1.44 3.28 3.28 z M144.96 35.56 l0.8 3.28 c0.04 0.2 0.08 0.2 0.08 0.32 c0 0.76 -2.92 1.52 -5.64 1.52 c-5.16 0 -5.16 -4.04 -5.16 -7.72 l0 -9 l-2.84 0 c-0.48 0 -0.56 -0.12 -0.56 -0.56 l0 -2.6 c0 -0.44 0.08 -0.56 0.56 -0.56 l2.84 0 l0 -5.04 c0 -0.52 0.08 -0.64 0.64 -0.72 l3.52 -0.48 c0.12 0 0.28 -0.04 0.52 -0.04 c0.36 0 0.4 0.2 0.4 0.68 l0 5.6 l4.56 0 c0.36 0 0.68 0 0.68 0.44 c0 0.08 0 0.16 -0.04 0.32 l-0.52 2.36 c-0.12 0.56 -0.24 0.6 -0.72 0.6 l-3.96 0 l0 9.68 c0 1.28 0 2.44 1.36 2.44 c1.6 0 2.6 -0.76 3.16 -0.76 c0.16 0 0.28 0.08 0.32 0.24 z M157.24 30.36 l2.12 -9.64 c0.12 -0.44 0.32 -0.84 0.68 -0.84 c0.16 0 0.6 0.04 0.72 0.04 l2.8 0.36 c0.6 0.08 0.88 0.12 0.88 0.4 c0 0.16 -0.12 0.4 -0.2 0.72 l-3.92 14.44 c-0.72 2.6 -1.8 6.68 -2.68 8.88 c-1.16 2.92 -3.64 3.76 -5.88 3.76 c-2.2 0 -5.44 -1.08 -5.44 -1.84 c0 -0.16 0.08 -0.32 0.16 -0.48 l1.2 -2.6 c0.08 -0.2 0.24 -0.28 0.36 -0.28 c0.4 0 1.64 1 3.4 1 c2.08 0 2.68 -1.24 3.2 -2.96 l0.4 -1.32 l-1.68 0 c-0.52 0 -0.6 -0.16 -0.72 -0.52 l-6.12 -18.08 c-0.04 -0.08 -0.16 -0.4 -0.2 -0.68 c0 -0.32 0.28 -0.36 0.88 -0.44 l3.32 -0.36 c0.12 0 0.56 -0.04 0.64 -0.04 c0.32 0 0.44 0.4 0.56 0.8 l2.6 9.68 c0.48 1.8 1.28 5.56 1.52 6.92 l0.08 0 c0.2 -1.56 1.16 -6.2 1.32 -6.92 z M194.52000000000004 35.28 l1.24 2.24 c0.12 0.24 0.2 0.4 0.2 0.6 c0 0.68 -2.72 2.56 -6.64 2.56 c-7 0 -10.36 -4.56 -10.36 -14.16 c0 -9.2 3.44 -14.6 10.36 -14.6 c3 0 6.56 2.2 6.56 2.96 c0 0.16 0 0.32 -0.2 0.6 l-1.48 2.24 c-0.16 0.24 -0.32 0.4 -0.48 0.4 c-0.68 0 -2 -1.88 -4.12 -1.88 c-3.44 0 -4.96 2.36 -4.96 9.24 c0 6.8 0.84 10.88 4.96 10.88 c2.24 0 3.68 -1.48 4.48 -1.48 c0.16 0 0.28 0.12 0.44 0.4 z M214.32000000000002 39.28 l-3.04 1.24 c-0.16 0.04 -0.36 0.16 -0.52 0.16 c-0.36 0 -0.96 -1.4 -1.16 -2.4 c-0.8 0.8 -2.2 2.4 -5.2 2.4 c-3.68 0 -6 -2.4 -6 -6.16 c0 -6.76 7.28 -6.76 10.44 -6.76 l0 -1.24 c0 -1.8 -0.32 -2.96 -2.84 -2.96 c-2.24 0 -4.44 1.2 -4.96 1.2 c-0.2 0 -0.36 -0.24 -0.4 -0.4 l-0.8 -2.44 c-0.08 -0.16 -0.12 -0.32 -0.12 -0.48 c0 -0.92 3.96 -1.88 7.04 -1.88 c5 0 6.88 2.28 6.88 6.44 l0 7.72 c0 3.88 1.04 4.4 1.04 5.2 c0 0.16 -0.16 0.28 -0.36 0.36 z M208.84000000000003 35.44 l0 -4.4 c-1 0 -5.64 -0.32 -5.64 3.2 c0 1.56 1.12 2.72 2.64 2.72 c1.48 0 2.52 -1.04 3 -1.52 z M244.76000000000005 25.880000000000003 l0 13.56 c0 0.44 -0.08 0.56 -0.56 0.56 l-3.96 0 c-0.48 0 -0.56 -0.12 -0.56 -0.56 l0 -12.32 c0 -1.52 -0.16 -3.36 -1.68 -3.36 c-1.68 0 -3 1.16 -3.52 1.64 l0 14.04 c0 0.44 -0.08 0.56 -0.56 0.56 l-3.96 0 c-0.48 0 -0.56 -0.12 -0.56 -0.56 l0 -12.32 c0 -1.52 -0.16 -3.36 -1.68 -3.36 c-1.68 0 -3 1.16 -3.52 1.64 l0 14.04 c0 0.44 -0.08 0.56 -0.56 0.56 l-3.96 0 c-0.48 0 -0.56 -0.12 -0.56 -0.56 l0 -12.08 c0 -5.64 -0.76 -5.32 -0.76 -6.24 c0 -0.2 0.16 -0.36 0.44 -0.44 l3.04 -1 c0.24 -0.08 0.44 -0.12 0.6 -0.12 c0.52 0 0.84 0.88 1.28 2.76 c1.2 -1.04 2.96 -2.76 6.12 -2.76 c1.72 0 3.6 1.08 4.08 2.76 c1.2 -1.04 2.92 -2.76 6.2 -2.76 c3.76 0 4.64 2.84 4.64 6.32 z M264.00000000000006 35.480000000000004 l1 2.4 c0.08 0.12 0.12 0.28 0.12 0.44 c0 1.04 -4 2.36 -7.16 2.36 c-5.28 0 -8.96 -3 -8.96 -10.36 c0 -6.36 3.4 -10.76 8.76 -10.76 c6.8 0 8 6.08 8 10.92 c0 0.76 -0.16 1 -0.92 1 l-10.76 0 c0 2.24 0.64 5 4.4 5 c2.88 0 4.52 -1.32 5.08 -1.32 c0.2 0 0.36 0.16 0.44 0.32 z M254.08000000000004 27.759999999999998 l6.28 0 c0 -1.64 -0.12 -4.48 -2.88 -4.48 c-3.12 0 -3.28 3.36 -3.4 4.48 z M275.24 26.08 l0 13.36 c0 0.44 -0.08 0.56 -0.56 0.56 l-3.96 0 c-0.48 0 -0.56 -0.12 -0.56 -0.56 l0 -12.08 c0 -4.4 -1.04 -5.12 -1.04 -6.04 c0 -0.16 0.16 -0.28 0.36 -0.36 l3.04 -1.24 c0.16 -0.04 0.36 -0.16 0.52 -0.16 c0.48 0 1.28 1.8 1.48 3.16 c0.76 -0.92 2.24 -3.16 4.96 -3.16 c1.16 0 2.32 0.4 2.32 0.92 c0 0.16 -0.04 0.32 -0.08 0.4 l-1.24 3.36 c-0.04 0.12 -0.16 0.36 -0.32 0.36 c-0.24 0 -0.96 -0.44 -1.88 -0.44 c-1.24 0 -2.52 1.36 -3.04 1.92 z M291.8 36.68 c2.8 0 3.28 -2.8 3.28 -6.56 c0 -3.72 -0.52 -6.56 -3.28 -6.56 s-3.28 2.84 -3.28 6.56 s0.48 6.56 3.28 6.56 z M300.48 30.119999999999997 c0 6.44 -3.28 10.56 -8.68 10.56 s-8.68 -4.12 -8.68 -10.56 s3.28 -10.56 8.68 -10.56 c5.36 0 8.68 4.12 8.68 10.56 z M312.56 36.68 c2.8 0 3.28 -2.8 3.28 -6.56 c0 -3.72 -0.52 -6.56 -3.28 -6.56 s-3.28 2.84 -3.28 6.56 s0.48 6.56 3.28 6.56 z M321.24 30.119999999999997 c0 6.44 -3.28 10.56 -8.68 10.56 s-8.68 -4.12 -8.68 -10.56 s3.28 -10.56 8.68 -10.56 c5.36 0 8.68 4.12 8.68 10.56 z M341.64 25.4 l0 14.04 c0 0.44 -0.08 0.56 -0.56 0.56 l-3.96 0 c-0.48 0 -0.56 -0.12 -0.56 -0.56 l0 -12.32 c0 -1.52 -0.2 -3.36 -2.24 -3.36 c-1.68 0 -3 1.16 -3.52 1.64 l0 14.04 c0 0.44 -0.08 0.56 -0.56 0.56 l-3.96 0 c-0.48 0 -0.56 -0.12 -0.56 -0.56 l0 -12.08 c0 -5.64 -0.76 -5.32 -0.76 -6.24 c0 -0.2 0.16 -0.36 0.44 -0.44 l3.04 -1 c0.24 -0.08 0.44 -0.12 0.6 -0.12 c0.52 0 0.84 0.88 1.28 2.76 c1.16 -1.04 2.96 -2.76 6.12 -2.76 c2.2 0 5.2 1 5.2 5.84 z"/></g><g id="SvgjsG7730" featureKey="sloganFeature-0" transform="matrix(0.9381961026839143,0,0,0.9381961026839143,162.9359687530421,63.29025602978818)" fill="#000"><path d="M12.34 6.02 l1.36 0 l0 13.98 l-1.46 0 l-8.66 -11.84 l0 11.84 l-1.38 0 l0 -13.98 l1.46 0 l8.68 11.84 l0 -11.84 z M24.8 10.15 q1.2 0.67 1.88 1.87 t0.68 2.72 q0 1.54 -0.68 2.75 t-1.88 1.88 t-2.72 0.67 t-2.72 -0.67 t-1.88 -1.88 t-0.68 -2.75 q0 -1.52 0.68 -2.72 t1.88 -1.87 t2.72 -0.67 t2.72 0.67 z M20.04 11.16 q-0.9 0.52 -1.4 1.46 t-0.5 2.14 q0 1.22 0.5 2.16 t1.4 1.46 t2.04 0.52 t2.04 -0.52 t1.4 -1.46 t0.5 -2.16 q0 -1.2 -0.5 -2.14 t-1.4 -1.46 t-2.04 -0.52 t-2.04 0.52 z M38.63 10.57 q1.07 1.09 1.07 2.99 l0 6.44 l-1.36 0 l0 -6.12 q0 -1.48 -0.82 -2.32 t-2.28 -0.84 q-1.62 0.02 -2.59 1 t-1.11 2.64 l0 5.64 l-1.34 0 l0 -10.48 l1.34 0 l0 2.44 q0.54 -1.22 1.59 -1.84 t2.55 -0.64 q1.88 0 2.95 1.09 z M42.62 13.46 l4.64 0 l0 0.98 l-4.64 0 l0 -0.98 z M58.769999999999996 10.15 q1.15 0.67 1.79 1.88 t0.64 2.75 q0 1.52 -0.64 2.72 t-1.78 1.87 t-2.6 0.67 q-1.44 0 -2.52 -0.65 t-1.68 -1.81 l0 6.3 l-1.34 0 l0 -14.36 l1.34 0 l0 2.42 q0.58 -1.16 1.67 -1.81 t2.51 -0.65 q1.46 0 2.61 0.67 z M57.94 18.35 q0.9 -0.53 1.4 -1.47 t0.5 -2.14 q0 -1.18 -0.5 -2.12 t-1.4 -1.47 t-2.02 -0.53 q-1.14 0 -2.03 0.53 t-1.4 1.47 t-0.51 2.12 q0 1.2 0.5 2.14 t1.4 1.47 t2.04 0.53 q1.12 0 2.02 -0.53 z M66.87 10.13 q0.97 -0.63 2.33 -0.65 l0 1.26 q-1.66 -0.02 -2.67 0.97 t-1.15 2.69 l0 5.6 l-1.34 0 l0 -10.48 l1.34 0 l0 2.44 q0.52 -1.2 1.49 -1.83 z M78.28 10.15 q1.2 0.67 1.88 1.87 t0.68 2.72 q0 1.54 -0.68 2.75 t-1.88 1.88 t-2.72 0.67 t-2.72 -0.67 t-1.88 -1.88 t-0.68 -2.75 q0 -1.52 0.68 -2.72 t1.88 -1.87 t2.72 -0.67 t2.72 0.67 z M73.52000000000001 11.16 q-0.9 0.52 -1.4 1.46 t-0.5 2.14 q0 1.22 0.5 2.16 t1.4 1.46 t2.04 0.52 t2.04 -0.52 t1.4 -1.46 t0.5 -2.16 q0 -1.2 -0.5 -2.14 t-1.4 -1.46 t-2.04 -0.52 t-2.04 0.52 z M85.87 6.779999999999999 q-0.57 0.58 -0.57 1.54 l0 1.48 l3.08 0 l0 1.06 l-3.08 0 l0 9.14 l-1.34 0 l0 -9.14 l-1.34 0 l0 -1.06 l1.34 0 l0 -1.32 q0 -1.04 0.44 -1.83 t1.18 -1.21 t1.6 -0.42 q0.98 0 1.84 0.48 l-0.34 1.08 q-0.72 -0.38 -1.4 -0.38 q-0.84 0 -1.41 0.58 z M90.17999999999999 9.52 l1.34 0 l0 10.48 l-1.34 0 l0 -10.48 z M91.52 5.83 q0.26 0.27 0.26 0.67 t-0.27 0.68 t-0.65 0.28 q-0.4 0 -0.67 -0.28 t-0.27 -0.68 t0.27 -0.67 t0.67 -0.27 t0.66 0.27 z M100.69999999999999 19.28 q-1.08 0.74 -2.32 0.78 q-1.2 0 -1.9 -0.74 t-0.7 -2.22 l0 -6.24 l-1.5 0 l-0.02 -1.04 l1.52 0 l0 -2.7 l1.34 0 l0 2.7 l3.4 -0.02 l0 1.06 l-3.4 0 l0 6.02 q0 1.94 1.44 1.94 q0.8 0 1.74 -0.56 z M112.78 10.66 q-1.12 0 -2.02 0.52 t-1.4 1.45 t-0.5 2.13 t0.5 2.14 t1.4 1.46 t2.02 0.52 q1.02 0 1.87 -0.36 t1.43 -1.04 l0.76 0.8 q-0.7 0.84 -1.76 1.3 t-2.36 0.46 q-1.5 0 -2.68 -0.67 t-1.85 -1.88 t-0.67 -2.73 t0.67 -2.73 t1.85 -1.88 t2.68 -0.67 q1.22 0 2.23 0.4 t1.73 1.12 l-0.76 0.9 q-1.28 -1.24 -3.14 -1.24 z M128.39 10.57 q1.07 1.09 1.07 2.99 l0 6.44 l-1.36 0 l0 -6.12 q0 -1.48 -0.82 -2.32 t-2.28 -0.84 q-1.74 0.02 -2.73 1.15 t-0.99 2.99 l0 5.14 l-1.34 0 l0 -14.84 l1.34 0 l0 6.84 q1.06 -2.48 4.16 -2.52 q1.88 0 2.95 1.09 z M139.61999999999998 20 l-0.02 -1.76 q-0.62 0.92 -1.62 1.37 t-2.3 0.45 q-1.06 0 -1.87 -0.41 t-1.25 -1.13 t-0.44 -1.62 q0 -1.36 1.05 -2.14 t2.89 -0.78 l3.52 0 l0 -0.8 q0 -1.24 -0.74 -1.92 t-2.16 -0.68 q-1.68 0 -3.38 1.26 l-0.6 -0.92 q1.06 -0.74 2.02 -1.09 t2.2 -0.35 q1.9 0 2.94 0.95 t1.06 2.63 l0.02 6.94 l-1.32 0 z M138.29 18.29 q0.97 -0.65 1.31 -1.83 l0 -1.44 l-3.38 0 q-1.38 0 -2.1 0.46 t-0.72 1.38 q0 0.94 0.69 1.51 t1.83 0.57 q1.4 0 2.37 -0.65 z M147.34999999999997 10.13 q0.97 -0.63 2.33 -0.65 l0 1.26 q-1.66 -0.02 -2.67 0.97 t-1.15 2.69 l0 5.6 l-1.34 0 l0 -10.48 l1.34 0 l0 2.44 q0.52 -1.2 1.49 -1.83 z M151.83999999999997 9.52 l1.34 0 l0 10.48 l-1.34 0 l0 -10.48 z M153.17999999999998 5.83 q0.26 0.27 0.26 0.67 t-0.27 0.68 t-0.65 0.28 q-0.4 0 -0.67 -0.28 t-0.27 -0.68 t0.27 -0.67 t0.67 -0.27 t0.66 0.27 z M162.35999999999999 19.28 q-1.08 0.74 -2.32 0.78 q-1.2 0 -1.9 -0.74 t-0.7 -2.22 l0 -6.24 l-1.5 0 l-0.02 -1.04 l1.52 0 l0 -2.7 l1.34 0 l0 2.7 l3.4 -0.02 l0 1.06 l-3.4 0 l0 6.02 q0 1.94 1.44 1.94 q0.8 0 1.74 -0.56 z M166.62999999999997 23.32 q-0.79 0.62 -1.81 0.62 q-1.22 0 -2.16 -0.72 l0.6 -1.04 q0.7 0.48 1.5 0.48 q0.64 0 1.16 -0.42 t0.86 -1.22 l0.44 -1.08 l-4.34 -10.42 l1.42 0 l3.6 9 l3.46 -9 l1.38 0 l-4.84 11.98 q-0.48 1.2 -1.27 1.82 z"/></g>
			</g>
		</svg>
	